<svg xmlns="http://www.w3.org/2000/svg" viewBox="0 0 300 287"><g fill="none" stroke-width="2"><path stroke="#0098d8" d="M253.5 1.29q-.06 1.51-1.34 2.02" vector-effect="non-scaling-stroke"/><path stroke="#00a2e2" d="M252.16 3.31q-7.92 2.33-13.66 8.23" vector-effect="non-scaling-stroke"/><path stroke="#00a0dd" stroke-opacity=".965" d="M238.5 11.54q-4.69-.85-9.28.24a1.73 1.21-67.5 0 0-.81.52q-1.5 1.67-3.77.68" vector-effect="non-scaling-stroke"/><path stroke="#017bb5" stroke-opacity=".588" d="M280.6 1.06 277.71 7" vector-effect="non-scaling-stroke"/><path stroke="#0479ae" stroke-opacity=".671" d="m277.71 7-1.25 2.25" vector-effect="non-scaling-stroke"/><path stroke="#0078ae" stroke-opacity=".71" d="m276.46 9.25-5.67 10.94" vector-effect="non-scaling-stroke"/><path stroke="#007ab1" stroke-opacity=".776" d="m270.79 20.19-3.08 5.56" vector-effect="non-scaling-stroke"/><path stroke="#0083bd" stroke-opacity=".867" d="m267.71 25.75-5.96 11.29" vector-effect="non-scaling-stroke"/><path stroke="#008cca" stroke-opacity=".941" d="m261.75 37.04-3.54 7.21" vector-effect="non-scaling-stroke"/><path stroke="#0192d4" d="M258.21 44.25q-2.59 7.43-6.46 14.29" vector-effect="non-scaling-stroke"/><path stroke="#0085c8" d="M251.75 58.54q-1.53.68-2.51 1.97a.99.91-68.9 0 1-.79.39c-3.34-.12-23.95-.97-25.32.02a.41.35 57 0 1-.54-.16q-.33-.53-1.3-.01" vector-effect="non-scaling-stroke"/><path stroke="#0095d8" d="M221.29 60.75c11.47-17.64 21.27-36.06 30.45-54.98q.34-.69.42-2.46" vector-effect="non-scaling-stroke"/><path stroke="#008fd2" d="M221.29 60.75q-2.43 3.1-4.24 6.6c-.92 1.77-1.32.42-1.09-.85" vector-effect="non-scaling-stroke"/><path stroke="#0085bc" stroke-opacity=".698" d="m215.96 66.5.33-1.25" vector-effect="non-scaling-stroke"/><path stroke="#0085bd" stroke-opacity=".749" d="m216.29 65.25 2.75-8.5" vector-effect="non-scaling-stroke"/><path stroke="#008ac3" stroke-opacity=".827" d="M219.04 56.75 224.96 38" vector-effect="non-scaling-stroke"/><path stroke="#0091cc" stroke-opacity=".886" d="m224.96 38 2.58-8" vector-effect="non-scaling-stroke"/><path stroke="#0096d3" stroke-opacity=".922" d="m227.54 30 3.5-8" vector-effect="non-scaling-stroke"/><path stroke="#009ddd" stroke-opacity=".965" d="m231.04 22 7.46-10.46" vector-effect="non-scaling-stroke"/><path stroke="#0d96cb" stroke-opacity=".886" d="m266.75 48.46-4.54 9.29" vector-effect="non-scaling-stroke"/><path stroke="#0c9ed6" stroke-opacity=".945" d="M262.21 57.75q-3.12 4.4-4.71 9.54" vector-effect="non-scaling-stroke"/><path stroke="#019fde" d="m257.5 67.29-10.19 16.1a1.22 1.14-37.2 0 0-.16.92q.34 1.31 1.6 1.98" vector-effect="non-scaling-stroke"/><path stroke="#0188ca" d="M242.25 95.04q-1.21-.6-1.63-1.86-.69-2.1-2.39.04c-.82 1.03-13.22 15.43-13.52 12.28" vector-effect="non-scaling-stroke"/><path stroke="#017dbe" d="M224.71 105.5q5.03-5.89 9.08-12.5" vector-effect="non-scaling-stroke"/><path stroke="#0185c6" d="M233.79 93q7.43-12.26 13.5-25.25" vector-effect="non-scaling-stroke"/><path stroke="#018cce" d="m247.29 67.75 4.46-9.21" vector-effect="non-scaling-stroke"/><path stroke="#0077ba" d="M247.29 67.75q-1.27-.84-3 2.37a1.54 1.53 17.7 0 1-1.56.8q-12.58-1.6-25.86.04c-1.65.21-2.44 1.2-3.16 2.54" vector-effect="non-scaling-stroke"/><path stroke="#008fd2" d="M213.71 73.5q-1.05-.25-1.92.75" vector-effect="non-scaling-stroke"/><path stroke="#006ea7" stroke-opacity=".624" d="m211.79 74.25 3.25-5.25" vector-effect="non-scaling-stroke"/><path stroke="#006da5" stroke-opacity=".698" d="m215.04 69 .92-2.5" vector-effect="non-scaling-stroke"/><path stroke="#0194d1" stroke-opacity=".941" d="m266.75 48.46.72-2.7a.52.45 13.9 0 0-.41-.58q-2.47-.56-4.85.18a1.27.22-19.7 0 1-.97.17q-1.16-.38-2.16.01a.61.54-22.6 0 1-.76-.26q-.21-.48-.11-1.03" vector-effect="non-scaling-stroke"/><path stroke="#0ca4da" stroke-opacity=".945" d="M262.21 66.25c-.65.12-4.55 2.12-4.71 1.04" vector-effect="non-scaling-stroke"/><path stroke="#006cae" d="M224.71 105.5q-7.17 7.7-17.23 10.92" vector-effect="non-scaling-stroke"/><path stroke="#0067ae" d="m205 116.71.49-.7a.53.46 32.7 0 0-.2-.7q-4.15-2.43-6.72-6.76" vector-effect="non-scaling-stroke"/><path stroke="#0063a4" d="m198.57 108.55-.07-1.26" vector-effect="non-scaling-stroke"/><path stroke="#0069aa" d="m233.79 93-.54-1.61a.75.59-10.1 0 0-.74-.39c-7.67.58-15.76-.54-22.24-.09a.77.65 72.9 0 1-.67-.43q-.52-1.04-1.81-.48" vector-effect="non-scaling-stroke"/><path stroke="#0088ca" d="m207.79 90 5.92-16.5" vector-effect="non-scaling-stroke"/><path stroke="#0088c1" stroke-opacity=".624" d="M211.79 74.25q-7.37 9.93-16.43 18.73" vector-effect="non-scaling-stroke"/><path stroke="#0080c2" d="M207.79 90q-3.54 9.26-9.29 17.29" vector-effect="non-scaling-stroke"/><path stroke="#0082c4" d="M198.5 107.29q-3.36-5.67-5.04-12.04" vector-effect="non-scaling-stroke"/><path stroke="#0069b0" d="M198.57 108.55q-3.39 3.3-7.3 5.18a1.09 1.04-43.6 0 1-.9 0q-5.43-2.65-9.12-7.52" vector-effect="non-scaling-stroke"/><path stroke="#0063a4" d="M181.25 105.04v1.17" vector-effect="non-scaling-stroke"/><path stroke="#0067ae" d="M181.25 106.21q-7.87 5.4-17.05 8.07" vector-effect="non-scaling-stroke"/><path stroke="#0183ca" d="m156.25 115.46-1 1.25" vector-effect="non-scaling-stroke"/><path stroke="#008bca" d="M124.46 41q.34 1.18 1.03 1.95" vector-effect="non-scaling-stroke"/><path stroke="#0096d4" d="m125.49 42.95 15.76 40.09" vector-effect="non-scaling-stroke"/><path stroke="#008bca" d="m141.25 83.04 3.21 6.46" vector-effect="non-scaling-stroke"/><path stroke="#0083c2" d="M144.46 89.5q6.27 15.15 19.74 24.78" vector-effect="non-scaling-stroke"/><path stroke="#0089ce" d="M164.2 114.28q-3.7 1.71-7.95 1.18" vector-effect="non-scaling-stroke"/><path stroke="#019fde" d="M156.25 115.46q-12.23-5.42-18.05-17.56c-2.32-4.83-3.73-9.48-5.56-11.55a1.06.94 31.8 0 1-.25-.83q.41-2.24-1.35-3.77" vector-effect="non-scaling-stroke"/><path stroke="#11ade5" d="M131.04 81.75q-.27-1.7-1.43-2.9-.3-.32-.44-.83l-1.46-5.27" vector-effect="non-scaling-stroke"/><path stroke="#20b7ec" d="m127.71 72.75-8.18-25.88a.75.34 73.6 0 0-.53-.61q-2.13.53-4.24-.07a.99.18-33 0 0-.75.31q-1.68 1.02-2.3-.43a1.32.33 70.6 0 0-.56-.85l-.9-.43" vector-effect="non-scaling-stroke"/><path stroke="#0078ba" d="M192.77 93.61q-2.26 5.71-7.73 8.64" vector-effect="non-scaling-stroke"/><path stroke="#0090c2" stroke-opacity=".796" d="m164.54 33.25 2 5.25" vector-effect="non-scaling-stroke"/><path stroke="#0097ca" stroke-opacity=".855" d="m166.54 38.5 1 4" vector-effect="non-scaling-stroke"/><path stroke="#009cd8" stroke-opacity=".953" d="M167.54 42.5q.53 3.26 2.04 6.23.98 1.94 1.09 2.61l.29 1.66a1.11.24 81.6 0 0 .35.94q.8.28.69-.44a.72.4-2.9 0 1 .75-.47l8.19-.11a.34.34-7.7 0 0 .33-.43q-.24-.8.69-.74" vector-effect="non-scaling-stroke"/><path stroke="#0098d8" d="M188.54 79q.14.99-.59 1.37a.75.65-29.8 0 1-.92-.18q-.48-.73-.27-1.71a.48.35-78.4 0 0-.25-.55q-3.78-.6-7.43.43a.67.32 62.2 0 1-.54-.4q-.29-.5-1.01-.53a.48.33 82 0 0-.29.59q2.87 12.46 7.8 24.23" vector-effect="non-scaling-stroke"/><path stroke="#0085c4" d="m185.04 102.25-3.79 2.79" vector-effect="non-scaling-stroke"/><path stroke="#0083c2" d="M181.25 105.04q-5.35-6.21-8.51-14.24" vector-effect="non-scaling-stroke"/><path stroke="#008bca" d="m172.74 90.8-3.03-6.55" vector-effect="non-scaling-stroke"/><path stroke="#0096d4" d="m169.71 84.25-13.75-42.34" vector-effect="non-scaling-stroke"/><path stroke="#0069aa" d="m172.74 90.8-25.43-.16a1.57 1.48 61.7 0 1-.9-.3q-.87-.64-1.95-.84" vector-effect="non-scaling-stroke"/><path stroke="#11a7e1" d="M131.04 81.75q.26 2.04-1.13 2.97a1.56 1.01 22 0 1-.93.18q-4.27-.41-7.27 2.37" vector-effect="non-scaling-stroke"/><path stroke="#0192c4" stroke-opacity=".812" d="m105.54 25.5-.08.5" vector-effect="non-scaling-stroke"/><path stroke="#3ba2c8" stroke-opacity=".812" d="m88.29 33.75 2.49-7.42" vector-effect="non-scaling-stroke"/><path stroke="#008bca" d="m150.96 28.75 5 13.16" vector-effect="non-scaling-stroke"/><path stroke="#007bbc" d="M155.96 41.91q-1.03.56-1.39.53-14.57-.88-29.08.51" vector-effect="non-scaling-stroke"/><path stroke="#30bfef" d="M127.71 72.75q-3.64 1.29-7.47.82a1.63 1.19-48.5 0 0-.91.2l-1.79.98" vector-effect="non-scaling-stroke"/><path stroke="#007bbc" d="M169.71 84.25c-1.51-3.05-4.04-1.19-6.36-1.29q-9.49-.4-19.07-.15a1.34 1.15 62.1 0 1-.86-.34q-1.6-1.46-2.17.57" vector-effect="non-scaling-stroke"/><path stroke="#1888be" stroke-opacity=".882" d="m88.5 3.29 5.5 2" vector-effect="non-scaling-stroke"/><path stroke="#2a94c9" stroke-opacity=".937" d="m94 5.29 7.5 5.25" vector-effect="non-scaling-stroke"/><path stroke="#20a3dc" d="m101.5 10.54 2.73 3.4" vector-effect="non-scaling-stroke"/><path stroke="#006caf" d="M104.23 13.94q1.98 4 5.06 7.31" vector-effect="non-scaling-stroke"/><path stroke="#0082c4" d="m109.29 21.25-1.04.71" vector-effect="non-scaling-stroke"/><path stroke="#0092d2" d="M108.25 21.96q-1.83 1.42-2.71 3.54" vector-effect="non-scaling-stroke"/><path stroke="#017ab0" stroke-opacity=".812" d="m105.54 25.5-3.68-7.55a.97.87 60 0 0-1.33-.44l-7.15 5.05" vector-effect="non-scaling-stroke"/><path stroke="#007abe" d="M93.38 22.56q.52-2.59 2.26-4.55.38-.43-.16-.36-.78.1-1.11.86a.94.76-79.2 0 1-.65.55q-1.63.21-3.23.63c-4.01 1.07-8.49.51-11.99 1.56q-5.02 1.49-8.87 1.74c-4.48.29-7.62 2.09-12.34 1.75a.52.46-86.4 0 1-.42-.53q.06-.95-.87-1" vector-effect="non-scaling-stroke"/><path stroke="#008fd2" d="m56 23.21 7.34-9.04q.31-.38-.15-.3-1.77.31-2.94 1.84" vector-effect="non-scaling-stroke"/><path stroke="#007bb7" stroke-opacity=".867" d="M60.25 15.71q.56-1.56-1.91-1.57" vector-effect="non-scaling-stroke"/><path stroke="#007bbc" d="m116.54 24.5 7.92 16.5" vector-effect="non-scaling-stroke"/><path stroke="#0096d4" d="M124.46 41q-2.8.15-5.15 1.23a.59.58-26.1 0 0-.28.8q.8 1.53.17 1.61a.91.49 73.4 0 1-.66-.66q-3.81-11.04-9.04-21.48a.97.91-9.9 0 0-.76-.5l-.49-.04" vector-effect="non-scaling-stroke"/><path stroke="#0175ac" stroke-opacity=".612" d="m151.71 10.75 5.79 7.54" vector-effect="non-scaling-stroke"/><path stroke="#0074a9" stroke-opacity=".71" d="m157.5 18.29 4 8.17" vector-effect="non-scaling-stroke"/><path stroke="#0096d4" d="M161.5 26.46q-1.5.04-1.67 1.35a.64.54-86.6 0 1-.52.55l-8.35.39" vector-effect="non-scaling-stroke"/><path stroke="#007bbc" d="m150.96 28.75-2-3.75" vector-effect="non-scaling-stroke"/><path stroke="#008abd" stroke-opacity=".71" d="m164.54 33.25-3.04-6.79" vector-effect="non-scaling-stroke"/><path stroke="#3f9bc1" stroke-opacity=".749" d="m88.29 33.75-2.83 7.75" vector-effect="non-scaling-stroke"/><path stroke="#40bae9" d="M85.46 41.5q-3.07-2.45-6.99-1.85" vector-effect="non-scaling-stroke"/><path stroke="#3098ce" d="m78.47 39.65 3.12-4.29" vector-effect="non-scaling-stroke"/><path stroke="#0175ab" stroke-opacity=".812" d="m93.38 22.56-2.6 3.77" vector-effect="non-scaling-stroke"/><path stroke="#309bd1" d="m90.78 26.33-9.19 9.03" vector-effect="non-scaling-stroke"/><path stroke="#0073b6" d="M81.59 35.36q-8.39.52-16.38 2.74-2.4.66-6.05 1c-4.19.38-7.45 2.19-11.93 1.88a1.3.77 62.3 0 1-.76-.47q-.62-.73-1.47.7" vector-effect="non-scaling-stroke"/><path stroke="#0089bd" stroke-opacity=".749" d="m83.29 49.5.25-2.5" vector-effect="non-scaling-stroke"/><path stroke="#1694c1" stroke-opacity=".749" d="m83.54 47 1.92-5.5" vector-effect="non-scaling-stroke"/><path stroke="#0070b1" d="m139.3 3.98-5.35 1.2q-1.2.27-.17 1.02 10.13 7.33 15.18 18.8" vector-effect="non-scaling-stroke"/><path stroke="#0065a7" d="M148.96 25c-3.4 1.25-6.28.02-9.15.53q-2.36.41-4.61 1.25a1.45 1.45-46.8 0 1-.95.03q-3.3-.99-6.73-1.35c-4.06-.42-6.63 1.63-10.98-.96" vector-effect="non-scaling-stroke"/><path stroke="#0070b1" d="m116.54 24.5-3.96-5.86a.46.43-39.8 0 0-.68-.04l-2.61 2.65" vector-effect="non-scaling-stroke"/><path stroke="#2091c8" d="m104.23 13.94 4.52-2.98" vector-effect="non-scaling-stroke"/><path stroke="#2a81b4" stroke-opacity=".937" d="m108.75 10.96 7.75-3.94" vector-effect="non-scaling-stroke"/><path stroke="#1874a8" stroke-opacity=".882" d="M123.54 3.25q-.27.44-.34.94a.7.63 88.6 0 1-.51.59q-3.16.61-6.19 2.24" vector-effect="non-scaling-stroke"/><path stroke="#008bce" d="M56 23.21q-6.12 8.62-11 18" vector-effect="non-scaling-stroke"/><path stroke="#0088ca" d="m45 41.21-9.25 17.75" vector-effect="non-scaling-stroke"/><path stroke="#0082c4" d="M35.75 58.96 23.96 82.11" vector-effect="non-scaling-stroke"/><path stroke="#007dbf" d="M23.96 82.11q-1.09 3.31-3.54 5.7" vector-effect="non-scaling-stroke"/><path stroke="#0088c1" stroke-opacity=".624" d="m20.42 87.81.62-3.81" vector-effect="non-scaling-stroke"/><path stroke="#0086bd" stroke-opacity=".71" d="m21.04 84 5-14.25" vector-effect="non-scaling-stroke"/><path stroke="#0087bf" stroke-opacity=".776" d="M26.04 69.75q5.37-14.17 13-27.25" vector-effect="non-scaling-stroke"/><path stroke="#008fc9" stroke-opacity=".867" d="M39.04 42.5q8.98-14.69 21.21-26.79" vector-effect="non-scaling-stroke"/><path stroke="#4cbbe4" stroke-opacity=".937" d="M108.75 10.96q-2.86.37-4.88-1.36a.69.57-37.7 0 0-.74-.02l-1.63.96" vector-effect="non-scaling-stroke"/><path stroke="#007ab4" stroke-opacity=".561" d="m151.71 10.75-6.94-5.25" vector-effect="non-scaling-stroke"/><path stroke="#11ade5" d="M83.54 47q-.76 1-.84 2.25a.21.12 18.4 0 1-.27.05q-.31-.13-.5.12a1.26 1.04 12.1 0 1-.85.44q-4.96.5-9.66-1.31" vector-effect="non-scaling-stroke"/><path stroke="#1193cd" d="m78.47 39.65-7.05 8.9" vector-effect="non-scaling-stroke"/><path stroke="#008bca" d="m71.42 48.55-4.11 5.37" vector-effect="non-scaling-stroke"/><path stroke="#006bac" d="M67.31 53.92q-2.91-.55-4.18 2.3a1.24 1.04-83.7 0 1-.66.63c-3.16 1.06-6.48.58-9.24 1.19-4.66 1.04-8.34 2.16-13.17 2.23q-.36 0-.81.2-1.13.48-2.31.42a.58.42-73.7 0 1-.28-.77q.54-1.3-.91-1.16" vector-effect="non-scaling-stroke"/><path stroke="#048cbe" stroke-opacity=".671" d="m79.46 56.5-4 5.75" vector-effect="non-scaling-stroke"/><path stroke="#0089bd" stroke-opacity=".749" d="m75.46 62.25-4.71 7.21" vector-effect="non-scaling-stroke"/><path stroke="#0090c2" stroke-opacity=".796" d="m70.75 69.46-1.29 2.29" vector-effect="non-scaling-stroke"/><path stroke="#0092c9" stroke-opacity=".867" d="M69.46 71.75 65.29 78" vector-effect="non-scaling-stroke"/><path stroke="#0098d8" d="M65.29 78q-4.97-2.02-10.79-1-.86.15-1.29-.75" vector-effect="non-scaling-stroke"/><path stroke="#0085c4" d="m53.21 76.25 14.1-22.33" vector-effect="non-scaling-stroke"/><path stroke="#008dc1" stroke-opacity=".624" d="M16.75 96.46 4.23 119.34" vector-effect="non-scaling-stroke"/><path stroke="#0078ba" d="m53.21 76.25-2.59 4.04" vector-effect="non-scaling-stroke"/><path stroke="#0060a1" d="M50.62 80.29q-7.48-1.37-15.35 1.52-5.15 1.89-11.31.3" vector-effect="non-scaling-stroke"/><path stroke="#0065a7" d="m44.64 91.57-4.6 8.43" vector-effect="non-scaling-stroke"/><path stroke="#005e9f" d="m40.04 100-8.01 16.49a1.16.98 50 0 0 0 .89q.33.85.22 1.83" vector-effect="non-scaling-stroke"/><path stroke="#0080bf" d="M13.83 119.64q.97-11.79 4.04-23.34.14-.54-.35-.35-.45.18-.77.51" vector-effect="non-scaling-stroke"/><path stroke="#005188" stroke-opacity=".624" d="m16.75 96.46 3.67-8.65" vector-effect="non-scaling-stroke"/><path stroke="#008fcd" stroke-opacity=".953" d="m62 83.54-1.75 3" vector-effect="non-scaling-stroke"/><path stroke="#007ec0" d="M60.25 86.54q-2.12 2.11-3.12 4.93a.71.67-79.3 0 1-.66.48l-11.83-.38" vector-effect="non-scaling-stroke"/><path stroke="#0073b4" d="m44.64 91.57 5.98-11.28" vector-effect="non-scaling-stroke"/><path stroke="#0083bd" stroke-opacity=".867" d="M62 83.54 65.29 78" vector-effect="non-scaling-stroke"/><path stroke="#0088ca" d="m55.18 95.77-2.64 4.73" vector-effect="non-scaling-stroke"/><path stroke="#0069aa" d="M52.54 100.5q-.89-1.72-1.7.07a.61.59-72 0 1-.67.36q-4.12-.89-8.31.08c-.95.22-1.54-.09-1.82-1.01" vector-effect="non-scaling-stroke"/><path stroke="#0099d8" stroke-opacity=".953" d="M65.04 101q-.04-.88-.62-.92a1.25.38-49 0 0-.83.52l-2.88 2.86a.79.41 31.2 0 1-.77-.05q-.62-.32-.87.38a1.24.9-86.1 0 1-.58.69q-1.63.71-1.2-1.26a.52.41-5.9 0 0-.68-.43q-2.55.78-2.96-2.01a1.51.99 65.5 0 1 .14-.91q1.18-1.91 1.39-4.1" vector-effect="non-scaling-stroke"/><path stroke="#0081bf" stroke-opacity=".953" d="m55.18 95.77 5.07-9.23" vector-effect="non-scaling-stroke"/><path stroke="#0080c2" d="m37.5 118.71-4.55.31a.14.12-10.8 0 1-.14-.08l-.06-.19a.31.17-11.6 0 1 .29-.24c10.18-1.74 15.44-9.28 19.5-18.01" vector-effect="non-scaling-stroke"/></g><path fill="#00a5e2" d="M253.5 1.29q-.06 1.51-1.34 2.02-7.92 2.33-13.66 8.23-4.69-.85-9.28.24a1.73 1.21-67.5 0 0-.81.52q-1.5 1.67-3.77.68 8.83-9.12 21.38-11.15c1.69-.28 6.09-1.48 7.48-.54Z"/><path fill="#008bcd" d="M280.6 1.06 277.71 7l-1.25 2.25-5.67 10.94-3.08 5.56-5.96 11.29-3.54 7.21q-2.59 7.43-6.46 14.29-1.53.68-2.51 1.97a.99.91-68.9 0 1-.79.39c-3.34-.12-23.95-.97-25.32.02a.41.35 57 0 1-.54-.16q-.33-.53-1.3-.01c11.47-17.64 21.27-36.06 30.45-54.98q.34-.69.42-2.46 1.28-.51 1.34-2.02l.66-.23q.89-.31.91-.31l25.53.31Z"/><path fill="#07212a" fill-opacity=".176" d="M293.46 12.25q-1.4-.04-1.66 1.29a1.14 1.04-10.5 0 1-.54.71q-.64.37-1.01-.25a.28.22-44 0 0-.42.04q-.27.36-.56-.1-2.84-.86-5.74-.17a.87.58-19 0 1-.84-.22q-.24-.39-.62-.21a.85.03-67.3 0 0-.34.75q-.34.78-.99 1.41-.39.37-.31-.33l.5-4.43q.03-.24.39-.92.45-.81-.07-1.57a.83.4 57.4 0 0-.76-.47q-.58.29-1.26-.03a1.04.73-45.6 0 0-.91.17q-.63.45-.61-.92l2.89-5.94 16.64.02q2.55 0 1.27 2.25l-5.05 8.92Z"/><path fill="#007ec2" d="m88.5 3.29 5.5 2 7.5 5.25 2.73 3.4q1.98 4 5.06 7.31l-1.04.71q-1.83 1.42-2.71 3.54l-3.68-7.55a.97.87 60 0 0-1.33-.44l-7.15 5.05q.52-2.59 2.26-4.55.38-.43-.16-.36-.78.1-1.11.86a.94.76-79.2 0 1-.65.55q-1.63.21-3.23.63c-4.01 1.07-8.49.51-11.99 1.56q-5.02 1.49-8.87 1.74c-4.48.29-7.62 2.09-12.34 1.75a.52.46-86.4 0 1-.42-.53q.06-.95-.87-1l7.34-9.04q.31-.38-.15-.3-1.77.31-2.94 1.84.56-1.56-1.91-1.57C66.86 6.67 77.22 1.84 88.5 3.29Z"/><path fill="#3896b8" fill-opacity=".761" d="M123.54 3.25q-.27.44-.34.94a.7.63 88.6 0 1-.51.59q-3.16.61-6.19 2.24-5.65-1.45-11.26-.54a1.06.6-14.9 0 1-.96-.25q-.61-.99-1.51-.5a.77.23-27.1 0 0-.53.51q.18.78-.48 1a1.17 1.03 54.7 0 1-1.04-.25q-1.36-1.14-2.94-.17a1.02.51 41.3 0 1-.92-.24Q95.5 5.59 94 5.29l-5.5-2q17.52-.55 35.04-.04Z"/><path fill="#005a9b" d="m139.3 3.98-5.35 1.2q-1.2.27-.17 1.02 10.13 7.33 15.18 18.8c-3.4 1.25-6.28.02-9.15.53q-2.36.41-4.61 1.25a1.45 1.45-46.8 0 1-.95.03q-3.3-.99-6.73-1.35c-4.06-.42-6.63 1.63-10.98-.96l-3.96-5.86a.46.43-39.8 0 0-.68-.04l-2.61 2.65q-3.08-3.31-5.06-7.31l4.52-2.98 7.75-3.94q3.03-1.63 6.19-2.24a.7.63 88.6 0 0 .51-.59q.07-.5.34-.94 7.97-1.04 15.76.73Z"/><path fill="#009fe2" d="M252.16 3.31q-.08 1.77-.42 2.46c-9.18 18.92-18.98 37.34-30.45 54.98q-2.43 3.1-4.24 6.6c-.92 1.77-1.32.42-1.09-.85l.33-1.25 2.75-8.5L224.96 38l2.58-8 3.5-8 7.46-10.46q5.74-5.9 13.66-8.23Z"/><path fill="#031318" fill-opacity=".118" d="M159.83 7.3q-.7.65-.21 1.31.26.35-.13.36l-7.98.37q-.53.02-.21.47.32.47.41.94l-6.94-5.25q4.22-3.13 9.23-1.06.22.09.95.16.57.06.75.64a.82.68 83.7 0 0 .57.55q2 .33 3.56 1.51Z"/><path fill="#0086c6" d="m139.3 3.98 5.47 1.52 6.94 5.25 5.79 7.54 4 8.17q-1.5.04-1.67 1.35a.64.54-86.6 0 1-.52.55l-8.35.39-2-3.75q-5.05-11.47-15.18-18.8-1.03-.75.17-1.02l5.35-1.2Z"/><path fill="#5aadd0" fill-opacity=".871" d="M94 5.29q1.5.3 2.86 1.29a1.02.51 41.3 0 0 .92.24q1.58-.97 2.94.17a1.17 1.03 54.7 0 0 1.04.25q.66-.22.48-1a.77.23-27.1 0 1 .53-.51q.9-.49 1.51.5a1.06.6-14.9 0 0 .96.25q5.61-.91 11.26.54l-7.75 3.94q-2.86.37-4.88-1.36a.69.57-37.7 0 0-.74-.02l-1.63.96L94 5.29Z"/><path fill="#0e4353" fill-opacity=".341" d="M277.71 7q-.02 1.37.61.92a1.04.73-45.6 0 1 .91-.17q.68.32 1.26.03a.83.4 57.4 0 1 .76.47q.52.76.07 1.57-.36.68-.39.92l-.5 4.43q-.08.7.31.33.65-.63.99-1.41a.85.03-67.3 0 1 .34-.75q.38-.18.62.21a.87.58-19 0 0 .84.22q2.9-.69 5.74.17.29.46.56.1a.28.22-44 0 1 .42-.04q.37.62 1.01.25a1.14 1.04-10.5 0 0 .54-.71q.26-1.33 1.66-1.29l-13.21 23.29q-.86.02-.74-.4.19-.63.15-.82-.14-.74-.91-.56a.77.36 68.7 0 1-.56-.54c-.55-1.26-3.28 1.68-3.98-.97l.33-1.5q2.07-3.92 3-8.25 1.69-4.79 2.9-9.73c.14-.59.27-3.48-1.17-1.39a.9.77-67 0 1-.78.39l-1.91-.23a.46.28 7.8 0 1-.43-.35l.31-1.94L277.71 7Z"/><path fill="#062834" fill-opacity=".22" d="M159.83 7.3q4.32 3.09 7.21 7.45.61 1.46.58 2.93-.01.6-.46.16-1.15-1.1-2.64-.36-1.31.65-3.21.17-1.99-.5-2.44.59a.52.45-68.7 0 1-.59.31l-.78-.26-5.79-7.54q-.09-.47-.41-.94-.32-.45.21-.47l7.98-.37q.39-.01.13-.36-.49-.66.21-1.31Z"/><path fill="#3fc8f5" d="m108.75 10.96-4.52 2.98-2.73-3.4 1.63-.96a.69.57-37.7 0 1 .74.02q2.02 1.73 4.88 1.36Z"/><path fill="#014a63" fill-opacity=".416" d="m276.46 9.25-.31 1.94a.46.28 7.8 0 0 .43.35l1.91.23a.9.77-67 0 0 .78-.39c1.44-2.09 1.31.8 1.17 1.39q-1.21 4.94-2.9 9.73l.1-1.46a.67.49-81 0 0-.33-.65q-3.22-1.04-6.52-.2l5.67-10.94Z"/><path fill="#019bd7" fill-opacity=".929" d="M238.5 11.54 231.04 22q.32-2.82-1.46-1.13-.95.9-4.09.08-2.68-.69-5.17.69a2.71.58-26.5 0 0-1.72 1.37q-.57 1.98-.89.49 2.5-5.94 6.93-10.52 2.27.99 3.77-.68a1.73 1.21-67.5 0 1 .81-.52q4.59-1.09 9.28-.24Z"/><path fill="#009fe2" d="M56 23.21q-6.12 8.62-11 18l-9.25 17.75-11.79 23.15q-1.09 3.31-3.54 5.7l.62-3.81 5-14.25q5.37-14.17 13-27.25 8.98-14.69 21.21-26.79 1.17-1.53 2.94-1.84.46-.08.15.3L56 23.21Z"/><path fill="#0078a8" fill-opacity=".733" d="M58.34 14.14q2.47.01 1.91 1.57-12.23 12.1-21.21 26.79-.16-1.53.17-2.35.54-1.32-.77-.67-2.87 1.41-3.7 4.47a1.65 1.22-16.5 0 1-.59.78q-.79.57-1.65.48 10.46-17.6 25.84-31.07Z"/><path fill="#014a63" fill-opacity=".416" d="M167.04 14.75q4.83 6.91 7.92 14.75l-.27 1.73a.61.41-84 0 1-.44.52h-8.75a.41.35 82.7 0 0-.32.5q.19.86-.64 1l-3.04-6.79-4-8.17.78.26a.52.45-68.7 0 0 .59-.31q.45-1.09 2.44-.59 1.9.48 3.21-.17 1.49-.74 2.64.36.45.44.46-.16.03-1.47-.58-2.93Z"/><path fill="#0076b9" d="m93.38 22.56-2.6 3.77-9.19 9.03q-8.39.52-16.38 2.74-2.4.66-6.05 1c-4.19.38-7.45 2.19-11.93 1.88a1.3.77 62.3 0 1-.76-.47q-.62-.73-1.47.7 4.88-9.38 11-18 .93.05.87 1a.52.46-86.4 0 0 .42.53c4.72.34 7.86-1.46 12.34-1.75q3.85-.25 8.87-1.74c3.5-1.05 7.98-.49 11.99-1.56q1.6-.42 3.23-.63a.94.76-79.2 0 0 .65-.55q.33-.76 1.11-.86.54-.07.16.36-1.74 1.96-2.26 4.55Z"/><path fill="#027494" fill-opacity=".624" d="m105.54 25.5-.08.5q-.39-1.54-1.4-.44-4.02 4.43-8.2 8.83 2.27-3.36.05-2.11a1.17.63-38.8 0 1-.9.17q-1.79-.75-3.77-.4a.86.37 62.8 0 1-.62-.51c-.61-1.05-1.22 1.88-2.33 2.21l2.49-7.42 2.6-3.77 7.15-5.05a.97.87 60 0 1 1.33.44l3.68 7.55Z"/><path fill="#0086c6" d="m116.54 24.5 7.92 16.5q-2.8.15-5.15 1.23a.59.58-26.1 0 0-.28.8q.8 1.53.17 1.61a.91.49 73.4 0 1-.66-.66q-3.81-11.04-9.04-21.48a.97.91-9.9 0 0-.76-.5l-.49-.04 1.04-.71 2.61-2.65a.46.43-39.8 0 1 .68.04l3.96 5.86Z"/><path fill="#005b7f" fill-opacity=".553" d="M277.54 22.5q-.93 4.33-3 8.25.55-2.17-.26-2.17-.78.01-.93-.05-2.96-1.11-5.84 0-.39.15-.3-.28l.5-2.5 3.08-5.56q3.3-.84 6.52.2a.67.49-81 0 1 .33.65l-.1 1.46Z"/><path fill="#008bc1" fill-opacity=".839" d="m231.04 22-3.5 8 .38-2.55a1.03.16-79.6 0 0 .02-.88q-.46-.63-.95-.1a.95.33-50.3 0 1-.72.44q-2.64-.71-5.23-.24-4.35.78-5.11 2.65l-1.17 2.92q-.14.35-.12-.02l.07-1.22q.98-3.96 3-7.5.32 1.49.89-.49a2.71.58-26.5 0 1 1.72-1.37q2.49-1.38 5.17-.69 3.14.82 4.09-.08 1.78-1.69 1.46 1.13Z"/><path fill="#00a5e2" d="m108.25 21.96.49.04a.97.91-9.9 0 1 .76.5q5.23 10.44 9.04 21.48a.91.49 73.4 0 0 .66.66q.63-.08-.17-1.61a.59.58-26.1 0 1 .28-.8q2.35-1.08 5.15-1.23.34 1.18 1.03 1.95l15.76 40.09 3.21 6.46q6.27 15.15 19.74 24.78-3.7 1.71-7.95 1.18-12.23-5.42-18.05-17.56c-2.32-4.83-3.73-9.48-5.56-11.55a1.06.94 31.8 0 1-.25-.83q.41-2.24-1.35-3.77-.27-1.7-1.43-2.9-.3-.32-.44-.83l-1.46-5.27-8.18-25.88a.75.34 73.6 0 0-.53-.61q-2.13.53-4.24-.07a.99.18-33 0 0-.75.31q-1.68 1.02-2.3-.43a1.32.33 70.6 0 0-.56-.85l-.9-.43L105.46 26l.08-.5q.88-2.12 2.71-3.54Z"/><path fill="#0070b2" d="M116.54 24.5c4.35 2.59 6.92.54 10.98.96q3.43.36 6.73 1.35a1.45 1.45-46.8 0 0 .95-.03q2.25-.84 4.61-1.25c2.87-.51 5.75.72 9.15-.53l2 3.75 5 13.16q-1.03.56-1.39.53-14.57-.88-29.08.51-.69-.77-1.03-1.95l-7.92-16.5Z"/><path fill="#0078a8" fill-opacity=".733" d="m267.71 25.75-.5 2.5q-.09.43.3.28 2.88-1.11 5.84 0 .15.06.93.05.81 0 .26 2.17l-.33 1.5-4.46 9.71q.45-1.12.19-2.23a.55.48-15.1 0 0-.67-.33q-3.15.93-6.46.15a.72.06 47.1 0 1-.46-.42q-.28-.3-.53.17a.55.41-62.1 0 1-.63.3q-.39-.21.17-.58a.91.88-17.5 0 0 .4-.74l-.01-1.24 5.96-11.29Z"/><path fill="#5fbfe9" d="m90.78 26.33-2.49 7.42-2.83 7.75q-3.07-2.45-6.99-1.85l3.12-4.29 9.19-9.03Z"/><path fill="#00a5e2" d="m161.5 26.46 3.04 6.79 2 5.25 1 4q.53 3.26 2.04 6.23.98 1.94 1.09 2.61l.29 1.66a1.11.24 81.6 0 0 .35.94q.8.28.69-.44a.72.4-2.9 0 1 .75-.47l8.19-.11a.34.34-7.7 0 0 .33-.43q-.24-.8.69-.74L188.54 79q.14.99-.59 1.37a.75.65-29.8 0 1-.92-.18q-.48-.73-.27-1.71a.48.35-78.4 0 0-.25-.55q-3.78-.6-7.43.43a.67.32 62.2 0 1-.54-.4q-.29-.5-1.01-.53a.48.33 82 0 0-.29.59q2.87 12.46 7.8 24.23l-3.79 2.79q-5.35-6.21-8.51-14.24l-3.03-6.55-13.75-42.34-5-13.16 8.35-.39a.64.54-86.6 0 0 .52-.55q.17-1.31 1.67-1.35Z"/><path fill="#007fb0" fill-opacity=".773" d="m227.54 30-2.58 8q-.19-2.06.68-4.1.23-.55-.29-.44-.44.1-.8.48a.98.9-62.7 0 1-.82.3q-4.81-.81-9.5.68a.37.33-10.6 0 1-.47-.29l-.05-.88 1-2.75-.07 1.22q-.02.37.12.02l1.17-2.92q.76-1.87 5.11-2.65 2.59-.47 5.23.24a.95.33-50.3 0 0 .72-.44q.49-.53.95.1a1.03.16-79.6 0 1-.02.88l-.38 2.55Z"/><path fill="#016d8d" fill-opacity=".592" d="m174.96 29.5 2.5 6.5q-.97.4-.87 1.45a.41.38 88.6 0 1-.4.45q-4.88-.37-9.65.6l-2-5.25q.83-.14.64-1a.41.35 82.7 0 1 .32-.5h8.75a.61.41-84 0 0 .44-.52l.27-1.73Z"/><path fill="#005272" fill-opacity=".498" d="M95.86 34.39q-5.78 7.95-12.57 15.11l.25-2.5 1.92-5.5 2.83-7.75c1.11-.33 1.72-3.26 2.33-2.21a.86.37 62.8 0 0 .62.51q1.98-.35 3.77.4a1.17.63-38.8 0 0 .9-.17q2.22-1.25-.05 2.11Z"/><path fill="#187591" fill-opacity=".6" d="M274.21 32.25c.7 2.65 3.43-.29 3.98.97a.77.36 68.7 0 0 .56.54q.77-.18.91.56.04.19-.15.82-.12.42.74.4l-7.5 13.25q-1.43-.38-2.19.56a1.31.44-55.5 0 1-.81.61l-2.5.12q-.83.03-.19-.66.92-1.02.69-2.38l2-5.08 4.46-9.71Z"/><path fill="#006a94" fill-opacity=".651" d="m224.96 38-5.92 18.75q.15-3.7 1.53-7.15c.27-.67.06-2.07-.99-.64a1.15 1.12-73.5 0 1-.82.46l-8.01.54a1.55 1.39 5.8 0 0-1.34.98q-.65 2.03-.95.06l5.25-17.25.05.88a.37.33-10.6 0 0 .47.29q4.69-1.49 9.5-.68a.98.9-62.7 0 0 .82-.3q.36-.38.8-.48.52-.11.29.44-.87 2.04-.68 4.1Z"/><path fill="#0070b2" d="m81.59 35.36-3.12 4.29-7.05 8.9-4.11 5.37q-2.91-.55-4.18 2.3a1.24 1.04-83.7 0 1-.66.63c-3.16 1.06-6.48.58-9.24 1.19-4.66 1.04-8.34 2.16-13.17 2.23q-.36 0-.81.2-1.13.48-2.31.42a.58.42-73.7 0 1-.28-.77q.54-1.3-.91-1.16L45 41.21q.85-1.43 1.47-.7a1.3.77 62.3 0 0 .76.47c4.48.31 7.74-1.5 11.93-1.88q3.65-.34 6.05-1 7.99-2.22 16.38-2.74Z"/><path fill="#0182a7" fill-opacity=".706" d="m177.46 36 2.68 8.98q-5.44 1.69-11.14 1.06l-1.46-3.54-1-4q4.77-.97 9.65-.6a.41.38 88.6 0 0 .4-.45q-.1-1.05.87-1.45Z"/><path fill="#008ec6" fill-opacity=".878" d="m261.75 37.04.01 1.24a.91.88-17.5 0 1-.4.74q-.56.37-.17.58a.55.41-62.1 0 0 .63-.3q.25-.47.53-.17a.72.06 47.1 0 0 .46.42q3.31.78 6.46-.15a.55.48-15.1 0 1 .67.33q.26 1.11-.19 2.23l-2 5.08-1 1.42.72-2.7a.52.45 13.9 0 0-.41-.58q-2.47-.56-4.85.18a1.27.22-19.7 0 1-.97.17q-1.16-.38-2.16.01a.61.54-22.6 0 1-.76-.26q-.21-.48-.11-1.03l3.54-7.21Z"/><path fill="#005b7f" fill-opacity=".553" d="M39.04 42.5q-7.63 13.08-13 27.25l-.17-2.03a1.04.53-32 0 1 .42-.7q.69-.56.31-1.45a.56.43-10.8 0 0-.53-.26l-3.32.21a.65.65 6.5 0 0-.58.46q-.61 2-2.67 2.73 5.6-12.25 13-23.5.86.09 1.65-.48a1.65 1.22-16.5 0 0 .59-.78q.83-3.06 3.7-4.47 1.31-.65.77.67-.33.82-.17 2.35Z"/><path fill="#21b5e8" d="M78.47 39.65q3.92-.6 6.99 1.85L83.54 47q-.76 1-.84 2.25a.21.12 18.4 0 1-.27.05q-.31-.13-.5.12a1.26 1.04 12.1 0 1-.85.44q-4.96.5-9.66-1.31l7.05-8.9Z"/><path fill="#0086c6" d="m155.96 41.91 13.75 42.34c-1.51-3.05-4.04-1.19-6.36-1.29q-9.49-.4-19.07-.15a1.34 1.15 62.1 0 1-.86-.34q-1.6-1.46-2.17.57l-15.76-40.09q14.51-1.39 29.08-.51.36.03 1.39-.53Z"/><path fill="#0093cd" fill-opacity=".902" d="m167.54 42.5 1.46 3.54 1.01 3.41a.69.51 77.7 0 0 .57.5l10.74-.71.64 2.51q-.93-.06-.69.74a.34.34-7.7 0 1-.33.43l-8.19.11a.72.4-2.9 0 0-.75.47q.11.72-.69.44a1.11.24 81.6 0 1-.35-.94l-.29-1.66q-.11-.67-1.09-2.61-1.51-2.97-2.04-6.23Z"/><path fill="#0199da" d="M258.21 44.25q-.1.55.11 1.03a.61.54-22.6 0 0 .76.26q1-.39 2.16-.01a1.27.22-19.7 0 0 .97-.17q2.38-.74 4.85-.18a.52.45 13.9 0 1 .41.58l-.72 2.7-4.54 9.29q-3.12 4.4-4.71 9.54l-10.19 16.1a1.22 1.14-37.2 0 0-.16.92q.34 1.31 1.6 1.98l-6.5 8.75q-1.21-.6-1.63-1.86-.69-2.1-2.39.04c-.82 1.03-13.22 15.43-13.52 12.28q5.03-5.89 9.08-12.5 7.43-12.26 13.5-25.25l4.46-9.21q3.87-6.86 6.46-14.29Z"/><path fill="#3fc8f5" d="m110.25 44.79.9.43a1.32.33 70.6 0 1 .56.85q.62 1.45 2.3.43a.99.18-33 0 1 .75-.31q2.11.6 4.24.07a.75.34 73.6 0 1 .53.61l8.18 25.88q-3.64 1.29-7.47.82a1.63 1.19-48.5 0 0-.91.2l-1.79.98-7.29-29.96Z"/><path fill="#008bc1" fill-opacity=".839" d="m180.14 44.98 1.18 4.26-10.74.71a.69.51 77.7 0 1-.57-.5L169 46.04q5.7.63 11.14-1.06Z"/><path fill="#00a5e2" d="m83.54 47-.25 2.5-3.83 7-4 5.75-4.71 7.21-1.29 2.29L65.29 78q-4.97-2.02-10.79-1-.86.15-1.29-.75l14.1-22.33 4.11-5.37q4.7 1.81 9.66 1.31a1.26 1.04 12.1 0 0 .85-.44q.19-.25.5-.12a.21.12 18.4 0 0 .27-.05q.08-1.25.84-2.25Z"/><path fill="#1c93b7" fill-opacity=".773" d="M267.75 47.04q.23 1.36-.69 2.38-.64.69.19.66l2.5-.12a1.31.44-55.5 0 0 .81-.61q.76-.94 2.19-.56l-5.5 9q-1.98-.09-2.21 1.75a.51.5 5.9 0 1-.55.43q-1.17-.09-2.16.63-.66.49-.53-.34l.41-2.51 4.54-9.29 1-1.42Z"/><path fill="#005272" fill-opacity=".498" d="m219.04 56.75-2.75 8.5c-.37-1.21 1.81-6.94-.69-4.27a1.34.56-53.6 0 1-.85.51l-7.99-.14a.91.54 5.9 0 0-.81.37l-.78 2.25a.68.25-72.8 0 1-.41.54q-.31-.03-.3-.51l4-13q.3 1.97.95-.06a1.55 1.39 5.8 0 1 1.34-.98l8.01-.54a1.15 1.12-73.5 0 0 .82-.46c1.05-1.43 1.26-.03.99.64q-1.38 3.45-1.53 7.15Z"/><path fill="#0065a6" d="m67.31 53.92-14.1 22.33-2.59 4.04q-7.48-1.37-15.35 1.52-5.15 1.89-11.31.3l11.79-23.15q1.45-.14.91 1.16a.58.42-73.7 0 0 .28.77q1.18.06 2.31-.42.45-.2.81-.2c4.83-.07 8.51-1.19 13.17-2.23 2.76-.61 6.08-.13 9.24-1.19a1.24 1.04-83.7 0 0 .66-.63q1.27-2.85 4.18-2.3Z"/><path fill="#0e4353" fill-opacity=".341" d="M79.46 56.5q.8 3.51-.93 6.68-2.2 2.6-3.07-.93l4-5.75Z"/><path fill="#19a3d2" fill-opacity=".89" d="m267.25 57.79-5.04 8.46c-.65.12-4.55 2.12-4.71 1.04q1.59-5.14 4.71-9.54l-.41 2.51q-.13.83.53.34.99-.72 2.16-.63a.51.5 5.9 0 0 .55-.43q.23-1.84 2.21-1.75Z"/><path fill="#007ec2" d="m251.75 58.54-4.46 9.21q-1.27-.84-3 2.37a1.54 1.53 17.7 0 1-1.56.8q-12.58-1.6-25.86.04c-1.65.21-2.44 1.2-3.16 2.54q-1.05-.25-1.92.75l3.25-5.25.92-2.5c-.23 1.27.17 2.62 1.09.85q1.81-3.5 4.24-6.6.97-.52 1.3.01a.41.35 57 0 0 .54.16c1.37-.99 21.98-.14 25.32-.02a.99.91-68.9 0 0 .79-.39q.98-1.29 2.51-1.97Z"/><path fill="#00425c" fill-opacity=".396" d="m216.29 65.25-.33 1.25-.92 2.5q-.47-3.58-1.14-1.36a1.07.84-5.3 0 1-.63.6q-1.35.49-2.72.23a1.29.49 4.5 0 1-.88-.42q-.53-.89-1.22-.19a.88.47-53 0 1-.67.31q-1.86-.38-3.64.45a1.08.79 86.8 0 0-.49.76q-.18 1.14-1.36 1.37l2.17-6.75q-.01.48.3.51a.68.25-72.8 0 0 .41-.54l.78-2.25a.91.54 5.9 0 1 .81-.37l7.99.14a1.34.56-53.6 0 0 .85-.51c2.5-2.67.32 3.06.69 4.27Z"/><path fill="#005272" fill-opacity=".498" d="M75.46 62.25q.87 3.53 3.07.93l-2.07 7.32q-1.1-.23-1.21.83a.58.41-82.8 0 1-.5.54q-.27-.04-.48-.27a.61.48-36.2 0 0-.7-.02q-.73.46-1.34-.05a1.01.36 43.3 0 0-.8-.35q-.32.12-.69.08-.46-.06-.09-.49.49-.6.1-1.31l4.71-7.21Z"/><path fill="#014a63" fill-opacity=".416" d="m26.04 69.75-5 14.25q-.36-5.24-1.56-.99a.43.29-64.9 0 1-.53.32l-1.02-1.01a.51.47 48.6 0 0-.65-.07q-1.45 1.12-2.53-.22a.43.28-53.2 0 0-.55.2q-.73 1.23-.24-1.48l5.54-12.04q2.06-.73 2.67-2.73a.65.65 6.5 0 1 .58-.46l3.32-.21a.56.43-10.8 0 1 .53.26q.38.89-.31 1.45a1.04.53-32 0 0-.42.7l.17 2.03Z"/><path fill="#00a5e2" d="m262.21 66.25-13.46 20.04q-1.26-.67-1.6-1.98a1.22 1.14-37.2 0 1 .16-.92l10.19-16.1c.16 1.08 4.06-.92 4.71-1.04Z"/><path fill="#022b3c" fill-opacity=".247" d="m215.04 69-3.25 5.25q-7.37 9.93-16.43 18.73 2.61-11.4 6.93-22.23 1.18-.23 1.36-1.37a1.08.79 86.8 0 1 .49-.76q1.78-.83 3.64-.45a.88.47-53 0 0 .67-.31q.69-.7 1.22.19a1.29.49 4.5 0 0 .88.42q1.37.26 2.72-.23a1.07.84-5.3 0 0 .63-.6q.67-2.22 1.14 1.36Z"/><path fill="#0070b2" d="M247.29 67.75q-6.07 12.99-13.5 25.25l-.54-1.61a.75.59-10.1 0 0-.74-.39c-7.67.58-15.76-.54-22.24-.09a.77.65 72.9 0 1-.67-.43q-.52-1.04-1.81-.48l5.92-16.5c.72-1.34 1.51-2.33 3.16-2.54q13.28-1.64 25.86-.04a1.54 1.53 17.7 0 0 1.56-.8q1.73-3.21 3-2.37Z"/><path fill="#016d8d" fill-opacity=".592" d="M70.75 69.46q.39.71-.1 1.31-.37.43.09.49.37.04.69-.08a1.01.36 43.3 0 1 .8.35q.61.51 1.34.05a.61.48-36.2 0 1 .7.02q.21.23.48.27a.58.41-82.8 0 0 .5-.54q.11-1.06 1.21-.83l-.92 2.5-.9 2.01a.84.81 9.8 0 1-.71.48q-2.23.16-3.69-1.45a.58.3 45.2 0 0-.68-.22q-.11.15-.31.2-.81.2-.29-.68.45-.77.5-1.59l1.29-2.29Z"/><path fill="#0078a8" fill-opacity=".733" d="M69.46 71.75q-.05.82-.5 1.59-.52.88.29.68.2-.05.31-.2a.58.3 45.2 0 1 .68.22q1.46 1.61 3.69 1.45a.84.81 9.8 0 0 .71-.48l.9-2.01-4.8 15.18q-3.57 1.3-5.65-1.51a.91.89 68.9 0 0-.79-.36q-2.8.18-2.3-2.77L65.29 78l4.17-6.25Z"/><path fill="#21b5e8" d="m127.71 72.75 1.46 5.27q.14.51.44.83 1.16 1.2 1.43 2.9.26 2.04-1.13 2.97a1.56 1.01 22 0 1-.93.18q-4.27-.41-7.27 2.37l-4.17-12.52 1.79-.98a1.63 1.19-48.5 0 1 .91-.2q3.83.47 7.47-.82Z"/><path fill="#009fe2" d="M213.71 73.5 207.79 90q-3.54 9.26-9.29 17.29-3.36-5.67-5.04-12.04l1.9-2.27q9.06-8.8 16.43-18.73.87-1 1.92-.75Z"/><path fill="#008bcd" d="M53.21 76.25q.43.9 1.29.75 5.82-1.02 10.79 1L62 83.54l-1.75 3q-2.12 2.11-3.12 4.93a.71.67-79.3 0 1-.66.48l-11.83-.38 5.98-11.28 2.59-4.04ZM188.54 79l4.23 14.61q-2.26 5.71-7.73 8.64-4.93-11.77-7.8-24.23a.48.33 82 0 1 .29-.59q.72.03 1.01.53a.67.32 62.2 0 0 .54.4q3.65-1.03 7.43-.43a.48.35-78.4 0 1 .25.55q-.21.98.27 1.71a.75.65-29.8 0 0 .92.18q.73-.38.59-1.37Z"/><path fill="#005a9b" d="m50.62 80.29-5.98 11.28-4.6 8.43-8.01 16.49a1.16.98 50 0 0 0 .89q.33.85.22 1.83-8.96.97-18.42.43.97-11.79 4.04-23.34.14-.54-.35-.35-.45.18-.77.51l3.67-8.65q2.45-2.39 3.54-5.7 6.16 1.59 11.31-.3 7.87-2.89 15.35-1.52Z"/><path fill="#022b3c" fill-opacity=".247" d="M13.96 80.75q-.49 2.71.24 1.48a.43.28-53.2 0 1 .55-.2q1.08 1.34 2.53.22a.51.47 48.6 0 1 .65.07l1.02 1.01a.43.29-64.9 0 0 .53-.32q1.2-4.25 1.56.99l-.62 3.81-3.67 8.65-12.52 22.88c-4.17.15-2.66-2.34-2.05-4.54q4.81-17.4 11.78-34.05Z"/><path fill="#0199da" d="M131.04 81.75q1.76 1.53 1.35 3.77a1.06.94 31.8 0 0 .25.83c1.83 2.07 3.24 6.72 5.56 11.55q5.82 12.14 18.05 17.56l-1 1.25c-18.67 1.66-28.44-13.81-33.54-29.44q3-2.78 7.27-2.37a1.56 1.01 22 0 0 .93-.18q1.39-.93 1.13-2.97Z"/><path fill="#0070b2" d="m169.71 84.25 3.03 6.55-25.43-.16a1.57 1.48 61.7 0 1-.9-.3q-.87-.64-1.95-.84l-3.21-6.46q.57-2.03 2.17-.57a1.34 1.15 62.1 0 0 .86.34q9.58-.25 19.07.15c2.32.1 4.85-1.76 6.36 1.29Z"/><path fill="#0093cd" fill-opacity=".902" d="M62 83.54q-.5 2.95 2.3 2.77a.91.89 68.9 0 1 .79.36q2.08 2.81 5.65 1.51-1.79 7-5.7 12.82-.04-.88-.62-.92a1.25.38-49 0 0-.83.52l-2.88 2.86a.79.41 31.2 0 1-.77-.05q-.62-.32-.87.38a1.24.9-86.1 0 1-.58.69q-1.63.71-1.2-1.26a.52.41-5.9 0 0-.68-.43q-2.55.78-2.96-2.01a1.51.99 65.5 0 1 .14-.91q1.18-1.91 1.39-4.1l5.07-9.23 1.75-3Z"/><path fill="#0070b2" d="m60.25 86.54-5.07 9.23-2.64 4.73q-.89-1.72-1.7.07a.61.59-72 0 1-.67.36q-4.12-.89-8.31.08c-.95.22-1.54-.09-1.82-1.01l4.6-8.43 11.83.38a.71.67-79.3 0 0 .66-.48q1-2.82 3.12-4.93Z"/><path fill="#0061a2" d="M172.74 90.8q3.16 8.03 8.51 14.24v1.17q-7.87 5.4-17.05 8.07-13.47-9.63-19.74-24.78 1.08.2 1.95.84a1.57 1.48 61.7 0 0 .9.3l25.43.16Zm61.05 2.2q-4.05 6.61-9.08 12.5-7.17 7.7-17.23 10.92l-2.48.29.49-.7a.53.46 32.7 0 0-.2-.7q-4.15-2.43-6.72-6.76l-.07-1.26q5.75-8.03 9.29-17.29 1.29-.56 1.81.48a.77.65 72.9 0 0 .67.43c6.48-.45 14.57.67 22.24.09a.75.59-10.1 0 1 .74.39l.54 1.61Z"/><path fill="#0076b9" d="M242.25 95.04q-4.9 6.27-13.06 13.65-9.52 8.6-21.71 7.73 10.06-3.22 17.23-10.92c.3 3.15 12.7-11.25 13.52-12.28q1.7-2.14 2.39-.04.42 1.26 1.63 1.86Z"/><path fill="#0065a6" d="M192.77 93.61q-.43 1.15.69 1.64 1.68 6.37 5.04 12.04l.07 1.26q-3.39 3.3-7.3 5.18a1.09 1.04-43.6 0 1-.9 0q-5.43-2.65-9.12-7.52v-1.17l3.79-2.79q5.47-2.93 7.73-8.64Z"/><path fill="#00a5e2" d="M13.83 119.64q-4.68.54-9.6-.3l12.52-22.88q.32-.33.77-.51.49-.19.35.35-3.07 11.55-4.04 23.34Z"/><path fill="#009fe2" d="M55.18 95.77q-.21 2.19-1.39 4.1a1.51.99 65.5 0 0-.14.91q.41 2.79 2.96 2.01a.52.41-5.9 0 1 .68.43q-.43 1.97 1.2 1.26a1.24.9-86.1 0 0 .58-.69q.25-.7.87-.38a.79.41 31.2 0 0 .77.05l2.88-2.86a1.25.38-49 0 1 .83-.52q.58.04.62.92-9.52 15.27-27.54 17.71l-4.55.31a.14.12-10.8 0 1-.14-.08l-.06-.19a.31.17-11.6 0 1 .29-.24c10.18-1.74 15.44-9.28 19.5-18.01l2.64-4.73Z"/><path fill="#0061a2" d="M52.54 100.5c-4.06 8.73-9.32 16.27-19.5 18.01a.31.17-11.6 0 0-.29.24l.06.19a.14.12-10.8 0 0 .14.08l4.55-.31q-2.55.84-5.25.5.11-.98-.22-1.83a1.16.98 50 0 1 0-.89L40.04 100c.28.92.87 1.23 1.82 1.01q4.19-.97 8.31-.08a.61.59-72 0 0 .67-.36q.81-1.79 1.7-.07Z"/><path fill="#006cb9" d="M181.25 106.21q3.69 4.87 9.12 7.52a1.09 1.04-43.6 0 0 .9 0q3.91-1.88 7.3-5.18 2.57 4.33 6.72 6.76a.53.46 32.7 0 1 .2.7l-.49.7h-49.75l1-1.25q4.25.53 7.95-1.18 9.18-2.67 17.05-8.07Z"/><path d="M246.08 107.19q3.08.31 3.18.94a.75.32-1.9 0 1-.77.36l-1.24.01a.75.5-90 0 0-.5.75V116a.8.79-13.3 0 1-.44.71c-1.68.85-1.06-5.37-.91-6.92a1.16.47-80.5 0 0-.22-1q-.73-.49-1.68-.28-1.31.29-.8-.55.41-.68 1.31-.77 1.04-.1 2.07 0Zm12.51 3.58q-.21.04-.3.3-1.02 3.03-2.54 5.29-.45.68-.71.09l-2.13-4.92a.81.27 70.5 0 0-.41-.53q-.24-.04-.43.07a.76.62 76.7 0 0-.33.68l.23 4a1.16.7 76.3 0 1-.28.88c-1.93 1.56-1.1-7.7-1.08-8.32a.84.84-11.9 0 1 .47-.72q.3-.15.67-.09a1.17 1.01 80.1 0 1 .83.68l2.35 5.38q.53 1.21 1 .13l2.36-5.42a1.15.48-69.8 0 1 .71-.77h.74a.71.58 88.5 0 1 .59.68c.11 2.7.92 9.9-1.04 8.42a1.12.76-76.6 0 1-.32-.85l.16-4.5a.47.45 85.6 0 0-.54-.48Zm-42.01 39.21q.35 2.15 2.18 1.64 5.37-1.48 3.86 3.22a.98.54 4.3 0 1-.87.4l-4.5.01a.75.5-90 0 0-.5.75v21a.75.5-90 0 1-.5.75H213a.75.5 90 0 1-.5-.75v-20.75a1.09 1.03 83.6 0 0-1.27-1.08q-4.19 1.02-3.13-3.14a.7.66-82.8 0 1 .65-.53h2.99a.69.68-87.2 0 0 .68-.62c.2-2.04-.2-4.37.34-6.15q2.11-7.05 10.04-6.15a1.12.52 2.3 0 1 .92.47q.48 1.57.25 3.2a.59.47 14.7 0 1-.75.33c-5.31-1.88-7.28 3.49-6.64 7.4Z"/><circle cx="80.04" cy="142.33" r="2.81"/><path d="m35.9 149.25.15 27.5a.94.38 89.5 0 1-.37.95h-3.61a.95.39 90 0 1-.39-.95V142a.76.57-90 0 1 .57-.76l5 .01a.93.48 71.4 0 1 .61.59l12.27 28.07q.26.59.49.07l12.59-28.04a.97.4-69.3 0 1 .6-.64l4.69-.04a.75.51 89.1 0 1 .52.74l.03 35.31a.55.44 0 0 1-.55.44l-3-.01a.77.73 0 0 1-.77-.73c.01-2.83.26-27.65-.32-27.65a.95.54-72.5 0 0-.65.6q-8.81 20.49-11.89 26.94c-.83 1.75-2.56.88-3.22-.57q-6.15-13.63-12.18-27.32-.58-1.31-.57.24Zm197.85.56q-.01 2.53 2.53 1.77 4.85-1.44 3.91 3.06a1.01.76 4.4 0 1-.95.61h-4.99a.54.48 90 0 0-.48.54q-.03 6.67-.03 13.3c0 3.92 1.36 6.94 5.93 4.89a.42.34-14.6 0 1 .58.26l.01 3.02a.81.4-12.1 0 1-.63.5q-10.29 2.69-10.23-7.76.06-11.09-.01-14.1a.67.38 88.7 0 0-.39-.65h-3.25a.75.5 0 0 1-.75-.5V152a.76.5 0 0 1 .76-.5l2.01-.02a1.62 1.42-6.8 0 0 1.61-1.8q-1.47-5.37 3.83-5.55a.64.52 89.1 0 1 .54.64v5.04Zm23.39 3.29a7.07 7.07 0 0 1-7.07 7.07 7.07 7.07 0 0 1-7.07-7.07 7.07 7.07 0 0 1 7.07-7.07 7.07 7.07 0 0 1 7.07 7.07Zm-1.05-.01a5.99 5.99 0 0 0-5.99-5.99 5.99 5.99 0 0 0-5.99 5.99 5.99 5.99 0 0 0 5.99 5.99 5.99 5.99 0 0 0 5.99-5.99Z"/><path d="M249.03 154.05q-.49.89-.26 1.95a1.26.6 69.6 0 1-.08.93q-.4.53-1 .41a.89.52-87.4 0 1-.44-.84v-7a.76.68-10.9 0 1 .5-.66c3.02-1.1 7.63 1.25 4.08 4.35a.64.58-40.7 0 0-.11.86q.96 1.11 1.41 2.53a.51.46 74 0 1-.31.63c-1.39.37-2-2.26-2.99-3.1a.62.4 36.8 0 0-.8-.06Zm2.46-2.85a1.52 1.52 0 0 0-1.52-1.52 1.52 1.52 0 0 0-1.52 1.52 1.52 1.52 0 0 0 1.52 1.52 1.52 1.52 0 0 0 1.52-1.52ZM93.47 168.81c1.89 6.01 8.87 7.26 14.01 3.95a.4.38-25.4 0 1 .58.19q1.27 3.78-2.34 4.7c-24.71 6.26-21.78-33.76 1.54-25.81a1.09.49 14.8 0 1 .8.65l.17 3.76q.02.57-.68.12c-9.26-5.95-16.93 3.42-14.08 12.44Zm61.662-2.12a11.58 11.58 0 0 1-11.68 11.48l-2.2-.02a11.58 11.58 0 0 1-11.479-11.68l.035-3.96a11.58 11.58 0 0 1 11.68-11.48l2.2.02a11.58 11.58 0 0 1 11.479 11.68l-.035 3.96Zm-12.695 8.09a10.16 8.58 90.3 0 0 8.633-10.115 10.16 8.58 90.3 0 0-8.527-10.205 10.16 8.58 90.3 0 0-8.633 10.115 10.16 8.58 90.3 0 0 8.527 10.205Zm24.063-.14q2.75.15 4.31-1.61 2.33-2.64-1.36-5c-3.14-2-8.01-2.86-9.37-7.45-2.55-8.65 8.14-10.8 13.95-8.77a1.03.58 14.5 0 1 .72.69l.01 3.5q0 .57-.7.13c-2.61-1.62-7.47-2.6-9.37.57-2.49 4.15 5.97 6.9 8.52 8.36q1.91 1.1 2.36 3.25c2 9.5-8.4 11.77-15.19 8.76a1.05.81 15 0 1-.63-.82v-3.5q0-.82.75-.27 2.7 1.99 6 2.16Zm38.95-8.197a11.63 11.63 0 0 1-11.57 11.69l-2.26.013a11.63 11.63 0 0 1-11.69-11.57l-.02-3.8a11.63 11.63 0 0 1 11.57-11.69l2.26-.012a11.63 11.63 0 0 1 11.69 11.57l.02 3.8Zm-12.718 8.337a10.16 8.59 90.1 0 0 8.608-10.145 10.16 8.59 90.1 0 0-8.572-10.175 10.16 8.59 90.1 0 0-8.608 10.145 10.16 8.59 90.1 0 0 8.572 10.175Zm-73.692-19.53q2.55-4.73 8.01-3.95a.81.4 6.2 0 1 .71.45l.06 3.18a.55.44 4.4 0 1-.63.43c-11.14-1.54-8.83 12.96-8.68 21.61a.76.5 89.8 0 1-.51.77l-3.42-.03a.9.38-89.8 0 1-.37-.89l.03-24.57a.72.49-89.3 0 1 .51-.73l3.56.1a.78.36-87.3 0 1 .33.8l-.14 2.82q-.05 1.1.54.01Z"/><rect width="4.5" height="26.24" x="77.75" y="151.52" rx=".87"/><path d="M97.95 269.26c.02-1.16-.45-2.54-.45-3.69v-75.59a.5.48 0 0 1 .5-.48l9.76-.01a1.26 1.1-90 0 1 1.1 1.26l-.17 93.44a.82.69-89.6 0 1-.69.81H95.25a1.03.47 63.3 0 1-.66-.53q-24.78-38.24-49.49-76.48c-.21-.32-2.57-5.87-2.42-4q.35 4.27.38 8.57.23 35.94.18 71.08a1.39 1.25-90 0 1-1.24 1.38l-9.68.09a.6.39 86 0 1-.42-.56c-.55-6.41-.15-14.11-.15-18.99q.01-37.67-.02-75.33a.73.52 90 0 1 .52-.73H46a1.28.56 63.2 0 1 .82.68l50.53 79.23q.58.9.6-.15Zm42.94-27.07-.04 32.06a.65.5 0 0 0 .65.5h38.25a.71.56 0 0 1 .71.56l-.04 9.26a.67.43 0 0 1-.67.43H130.5a1.06.98-90 0 1-.98-1.06l.03-93.44a1 .95 90 0 1 .95-1h46.75a.79.76-.4 0 1 .79.75l.18 8.76a.78.72-.4 0 1-.78.73h-35.69a.95.94 90 0 0-.94.95l-.01 30.25a.3.26 90 0 0 .26.3l33.69.01a.63.56 0 0 1 .63.56l-.1 8.94a1.03.97.3 0 1-1.03.96l-32.75-.02a.61.5 0 0 0-.61.5Zm76.55-42.15-26.04-.2a.98.96 4.4 0 1-.96-1.1q.61-4.23.01-8.49a.65.62 85.6 0 1 .61-.74l64.94-.01a.78.76-.4 0 1 .78.75l.13 8.94a.54.47 89.4 0 1-.47.55l-26.19.01a.75.75 0 0 0-.75.75v84a.58.48-.6 0 1-.57.48l-10.19.02a.81.7-90 0 1-.7-.81l-.03-83.69a.57.46 0 0 0-.57-.46Z"/><circle cx="8.1" cy="278.94" r="7.49"/></svg>